<?xml version="1.0" standalone="no"?><!DOCTYPE svg PUBLIC "-//W3C//DTD SVG 1.1//EN" "http://www.w3.org/Graphics/SVG/1.1/DTD/svg11.dtd"><svg t="1597597758123" class="icon" viewBox="0 0 1024 1024" version="1.1" xmlns="http://www.w3.org/2000/svg" p-id="7057" width="20" height="20"><path d="M245.750857 479.963429 347.428571 406.213486 449.142857 479.963429 410.322286 360.572343 512 286.749257 386.249143 286.749257 347.428571 167.356343 308.608 286.749257 182.857143 286.749257 284.571429 360.572343Z" p-id="7058"></path><path d="M658.285714 347.428571c0-171.679086-139.178057-310.857143-310.857143-310.857143C175.714743 36.571429 36.571429 175.749486 36.571429 347.428571c0 94.928457 42.642286 179.785143 109.714286 236.785371L146.285714 987.428571l201.142857-109.714286 201.142857 109.714286L548.571429 584.213943C615.643429 527.213714 658.285714 442.357029 658.285714 347.428571zM109.714286 347.428571c0-131.072 106.642286-237.714286 237.714286-237.714286s237.714286 106.642286 237.714286 237.714286-106.642286 237.714286-237.714286 237.714286S109.714286 478.500571 109.714286 347.428571zM475.428571 864.213943l-92.964571-50.7136L347.428571 794.3936l-35.035429 19.106743L219.428571 864.213943 219.428571 630.500571C258.499657 648.1792 301.750857 658.285714 347.428571 658.285714s88.928914-10.106514 128-27.785143L475.428571 864.213943z" p-id="7059"></path><path d="M731.428571 256l292.571429 0 0 73.142857-292.571429 0 0-73.142857Z" p-id="7060" fill="#e91e63"></path><path d="M731.428571 475.428571l292.571429 0 0 73.142857-292.571429 0 0-73.142857Z" p-id="7061" fill="#e91e63"></path><path d="M621.714286 694.857143l402.285714 0 0 73.142857-402.285714 0 0-73.142857Z" p-id="7062" fill="#e91e63"></path></svg>